<svg xmlns="http://www.w3.org/2000/svg" width="54" height="80" viewBox="52.5 37.5 54 80"><path d="M98.269 76.1a17.576 17.576 0 0 0 4.213-10.622 17.737 17.737 0 0 0 .018-.811A17.851 17.851 0 0 0 89 47.452v-5.007C89 39.99 86.985 38 84.5 38a4.473 4.473 0 0 0-4.5 4.445v4.444h-9v-4.444A4.473 4.473 0 0 0 66.5 38a4.473 4.473 0 0 0-4.5 4.445v4.444h-4.5c-2.48 0-4.5 1.991-4.5 4.444a4.745 4.745 0 0 0 2.247 3.783c.785.524 1.698.85 2.611.882A4.19 4.19 0 0 0 58 56h4v44h-5c-2.47 0-4 2.21-4 4.667 0 2.452 2.025 4.444 4.5 4.444H62v4.445A4.473 4.473 0 0 0 66.5 118a4.473 4.473 0 0 0 4.5-4.444v-4.445h9v4.445A4.473 4.473 0 0 0 84.5 118c2.485 0 4.5-1.99 4.5-4.444v-4.445a17.91 17.91 0 0 0 18-17.778c0-6.456-3.504-12.118-8.731-15.233ZM89 100.004H71V82.007h18c4.963 0 9 4.037 9 8.998 0 4.962-4.037 8.999-9 8.999ZM71 55.997h13.8a9.11 9.11 0 0 1 9.2 8.998 9.11 9.11 0 0 1-9.2 8.998H71V55.997Z" stroke-miterlimit="100" stroke="rgba(255, 255, 255, 1)" fill="transparent" data-name="ICON BITCOIN"/></svg>