<svg xmlns="http://www.w3.org/2000/svg" width="39.999" height="76" viewBox="79 42 39.999 76"><path d="M107.789 51.181a19.958 19.958 0 0 0-3.806-1.263A5.5 5.5 0 0 0 104 49.5v-2a5.5 5.5 0 0 0-11 0v2a5.5 5.5 0 0 0 .011.342 21.344 21.344 0 0 0-3.923 1.21 14.047 14.047 0 0 0-5.936 4.589 18.492 18.492 0 0 0-3.673 11.22c0 3.165.687 5.948 2.055 8.336a17.676 17.676 0 0 0 .396.655 14.932 14.932 0 0 0 4.954 4.897 22.746 22.746 0 0 0 .147.088c1.486.887 3.35 1.774 5.592 2.668a80.789 80.789 0 0 0 3.408 1.265 110.491 110.491 0 0 1 1.303.47c3.602 1.328 5.97 2.44 7.097 3.338a4.77 4.77 0 0 1 1.684 2.65 7.164 7.164 0 0 1 .204 1.76c0 1.875-.63 3.471-1.888 4.797a5.504 5.504 0 0 1-1.65 1.18 7.966 7.966 0 0 1-2.061.63 12.845 12.845 0 0 1-2.194.175 13.709 13.709 0 0 1-1.968-.136c-1.473-.213-2.753-.68-3.841-1.4a8.755 8.755 0 0 1-3.046-3.6 5.367 5.367 0 0 0-4.84-3.025c-.453 0-.912.057-1.367.176l-.414.108a5.522 5.522 0 0 0-.341.101c-3.065 1.014-4.609 4.527-3.157 7.468a17.145 17.145 0 0 0 8.39 8.344 21.48 21.48 0 0 0 5.18 1.547 5.5 5.5 0 0 0-.122 1.147v2a5.5 5.5 0 0 0 11 0v-2a5.5 5.5 0 0 0-.15-1.273 24.56 24.56 0 0 0 3.873-1.026 16.545 16.545 0 0 0 6.85-4.535c2.949-3.303 4.427-7.434 4.427-12.392a19.69 19.69 0 0 0-.18-2.698 15.357 15.357 0 0 0-1.964-5.769c-1.434-2.41-3.344-4.306-5.744-5.676a30.755 30.755 0 0 0-.16-.091c-1.62-.914-3.643-1.867-6.07-2.856a106.374 106.374 0 0 0-3.685-1.418c-3.835-1.414-6.344-2.593-7.508-3.545A4.583 4.583 0 0 1 92.14 66.8a6.534 6.534 0 0 1-.208-1.696 6.575 6.575 0 0 1 0-.005 6.137 6.137 0 0 1 1.822-4.47 5.914 5.914 0 0 1 2.674-1.57 7.942 7.942 0 0 1 2.148-.276c2.86 0 5.18 1.412 6.969 4.236a5.376 5.376 0 0 0 4.546 2.495c.163 0 .326-.008.49-.023a5.396 5.396 0 0 0 1.56-.383 5.501 5.501 0 0 0 .433-.2 5.414 5.414 0 0 0 2.835-5.808 5.264 5.264 0 0 0-.717-1.807 15.842 15.842 0 0 0-6.903-6.112Z" fill="rgba(255, 255, 255, 1)" fill-rule="evenodd" data-name="ICON DOLLAR"/></svg>